<?xml version="1.0" encoding="UTF-8" standalone="no"?>
<!DOCTYPE svg PUBLIC "-//W3C//DTD SVG 1.1//EN" "http://www.w3.org/Graphics/SVG/1.1/DTD/svg11.dtd">
<svg width="100%" height="100%" viewBox="0 0 342 68" version="1.1" xmlns="http://www.w3.org/2000/svg" xmlns:xlink="http://www.w3.org/1999/xlink" xml:space="preserve" xmlns:serif="http://www.serif.com/" style="fill-rule:evenodd;clip-rule:evenodd;stroke-linecap:round;stroke-linejoin:round;stroke-miterlimit:1.5;">
    <g id="Artboard1" transform="matrix(0.974684,0,0,0.819512,-17.1994,-7.05104)">
        <rect x="17.646" y="8.604" width="350.747" height="82.742" style="fill:none;"/>
        <g>
            <g transform="matrix(1.19036,0,0,1.41575,-13.9578,-14.4825)">
                <circle cx="56.589" cy="46.146" r="25.857" style="fill:rgb(255,132,0);stroke:black;stroke-width:2.59px;"/>
            </g>
            <g transform="matrix(1.02597,0,0,1.22024,-11.7773,-5.28167)">
                <text x="43.759px" y="63.819px" style="font-family:'Cocogoose';font-size:48px;">G</text>
            </g>
        </g>
        <g>
            <g transform="matrix(1.19036,0,0,1.41575,78.3799,-14.4825)">
                <circle cx="56.589" cy="46.146" r="25.857" style="fill:rgb(0,226,255);stroke:black;stroke-width:2.59px;"/>
            </g>
            <g transform="matrix(1.02597,0,0,1.22024,83.2894,-5.28167)">
                <text x="43.759px" y="63.819px" style="font-family:'Cocogoose';font-size:48px;">E</text>
            </g>
        </g>
        <g>
            <g transform="matrix(1.19036,0,0,1.41575,170.718,-14.4825)">
                <circle cx="56.589" cy="46.146" r="25.857" style="fill:rgb(5,255,0);stroke:black;stroke-width:2.59px;"/>
            </g>
            <g transform="matrix(1.02597,0,0,1.22024,169.57,-5.28167)">
                <text x="43.759px" y="63.819px" style="font-family:'Cocogoose';font-size:48px;">M</text>
            </g>
        </g>
        <g>
            <g transform="matrix(1.19036,0,0,1.41575,263.327,-14.4825)">
                <circle cx="56.589" cy="46.146" r="25.857" style="fill:rgb(255,0,211);stroke:black;stroke-width:2.59px;"/>
            </g>
            <g transform="matrix(1.02597,0,0,1.22024,265.614,-5.28167)">
                <text x="43.759px" y="63.819px" style="font-family:'Cocogoose';font-size:48px;">N</text>
            </g>
        </g>
    </g>
</svg>
