<?xml version="1.0" encoding="UTF-8" standalone="no"?>
<!DOCTYPE svg PUBLIC "-//W3C//DTD SVG 1.1//EN" "http://www.w3.org/Graphics/SVG/1.1/DTD/svg11.dtd">
<svg width="100%" height="100%" viewBox="0 0 2657 457" version="1.1" xmlns="http://www.w3.org/2000/svg" xmlns:xlink="http://www.w3.org/1999/xlink" xml:space="preserve" xmlns:serif="http://www.serif.com/" style="fill-rule:evenodd;clip-rule:evenodd;stroke-linejoin:round;stroke-miterlimit:2;">
    <g id="Artboard1" transform="matrix(0.898866,0,0,1.12667,1.38398,-3.84893)">
        <rect x="-1.54" y="3.416" width="494.242" height="395.702" style="fill:none;"/>
        <g id="Location" transform="matrix(2.20451,0,0,1.75877,-20060,-550.605)">
            <g transform="matrix(1,0,0,1,2111.93,-400.993)">
                <circle cx="7099" cy="798" r="80" style="fill:rgb(255,60,60);"/>
            </g>
            <g transform="matrix(0.504654,0,0,0.504654,9121.98,309.17)">
                <text x="74.677px" y="268.084px" style="font-family:'UDDigiKyokashoNP-B', 'UD Digi Kyokasho NP-B', serif;font-weight:700;font-size:262.72px;">G</text>
            </g>
        </g>
        <g transform="matrix(1.11251,0,0,0.887572,-29.8494,-4.42038)">
            <text x="23.215px" y="436.876px" style="font-family:'UDDigiKyokashoNP-B', 'UD Digi Kyokasho NP-B', serif;font-weight:700;font-size:131.358px;">Gluten</text>
        </g>
    </g>
    <g id="Artboard2" transform="matrix(0.898866,0,0,1.12667,546.096,-3.84893)">
        <rect x="-1.54" y="3.416" width="494.242" height="395.702" style="fill:none;"/>
        <g id="Location1" serif:id="Location" transform="matrix(2.20451,0,0,1.75877,-20060,-550.605)">
            <g transform="matrix(1,0,0,1,2111.93,-400.993)">
                <circle cx="7099" cy="798" r="80" style="fill:rgb(60,176,255);"/>
            </g>
            <g transform="matrix(0.504654,0,0,0.504654,9109.35,311.159)">
                <text x="74.677px" y="268.084px" style="font-family:'UDDigiKyokashoNP-B', 'UD Digi Kyokasho NP-B', serif;font-weight:700;font-size:262.72px;">M</text>
            </g>
        </g>
        <g transform="matrix(1.17306,0,0,0.887572,23.8169,-4.42038)">
            <text x="23.215px" y="436.876px" style="font-family:'UDDigiKyokashoNP-B', 'UD Digi Kyokasho NP-B', serif;font-weight:700;font-size:131.358px;">Melk</text>
        </g>
    </g>
    <g id="Artboard3" transform="matrix(0.898866,0,0,1.12667,1086.84,-3.84893)">
        <rect x="-1.54" y="3.416" width="494.242" height="395.702" style="fill:none;"/>
        <g id="Location2" serif:id="Location" transform="matrix(2.20451,0,0,1.75877,-20060,-550.605)">
            <g transform="matrix(1,0,0,1,2111.93,-400.993)">
                <circle cx="7099" cy="798" r="80" style="fill:rgb(60,255,104);"/>
            </g>
            <g transform="matrix(0.504654,0,0,0.504654,9125.86,309.17)">
                <text x="74.677px" y="268.084px" style="font-family:'UDDigiKyokashoNP-B', 'UD Digi Kyokasho NP-B', serif;font-weight:700;font-size:262.72px;">F</text>
            </g>
        </g>
        <g transform="matrix(1.1494,0,0,0.887572,55.7506,-4.42038)">
            <text x="23.215px" y="436.876px" style="font-family:'UDDigiKyokashoNP-B', 'UD Digi Kyokasho NP-B', serif;font-weight:700;font-size:131.358px;">Fisk</text>
        </g>
    </g>
    <g id="Artboard4" transform="matrix(0.898866,0,0,1.12667,1646.9,-3.84893)">
        <rect x="-1.54" y="3.416" width="494.242" height="395.702" style="fill:none;"/>
        <g id="Location3" serif:id="Location" transform="matrix(2.20451,0,0,1.75877,-20060,-550.605)">
            <g transform="matrix(1,0,0,1,2111.93,-400.993)">
                <circle cx="7099" cy="798" r="80" style="fill:rgb(255,188,60);"/>
            </g>
            <g transform="matrix(0.492239,0,0,0.504654,9123,309.17)">
                <text x="74.677px" y="268.084px" style="font-family:'UDDigiKyokashoNP-B', 'UD Digi Kyokasho NP-B', serif;font-weight:700;font-size:262.72px;">N</text>
            </g>
        </g>
        <g transform="matrix(1.11251,0,0,0.887572,-24.462,-4.42038)">
            <text x="23.215px" y="436.876px" style="font-family:'UDDigiKyokashoNP-B', 'UD Digi Kyokasho NP-B', serif;font-weight:700;font-size:131.358px;">N</text>
            <text x="127.249px" y="436.876px" style="font-family:'TimesNewRomanPS-BoldMT', 'Times New Roman', serif;font-weight:700;font-size:131.358px;">ø</text>
            <text x="192.928px" y="436.876px" style="font-family:'UDDigiKyokashoNP-B', 'UD Digi Kyokasho NP-B', serif;font-weight:700;font-size:131.358px;">tter</text>
        </g>
    </g>
    <g id="Artboard5" transform="matrix(0.898866,0,0,1.15456,2213.51,-3.94421)">
        <rect x="-1.54" y="3.416" width="494.242" height="395.702" style="fill:none;"/>
        <g id="Location4" serif:id="Location" transform="matrix(2.20451,0,0,1.71629,-20060,-537.221)">
            <g transform="matrix(1,0,0,1,2111.93,-400.993)">
                <circle cx="7099" cy="798" r="80" style="fill:rgb(253,255,0);"/>
            </g>
            <g transform="matrix(0.504654,0,0,0.504654,9124.53,309.17)">
                <text x="74.677px" y="268.084px" style="font-family:'UDDigiKyokashoNP-B', 'UD Digi Kyokasho NP-B', serif;font-weight:700;font-size:262.72px;">E</text>
            </g>
        </g>
        <g transform="matrix(1.11251,0,0,0.866131,75.7221,-4.23107)">
            <text x="23.215px" y="436.876px" style="font-family:'UDDigiKyokashoNP-B', 'UD Digi Kyokasho NP-B', serif;font-weight:700;font-size:131.358px;">Egg</text>
        </g>
    </g>
</svg>
